<svg xmlns="http://www.w3.org/2000/svg" viewBox="0 0 1600 420" preserveAspectRatio="xMidYMid slice">
  <defs>
    <linearGradient id="base" x1="0%" y1="0%" x2="100%" y2="100%">
      <stop offset="0%" stop-color="#f7fbff"/>
      <stop offset="18%" stop-color="#dbe4ef"/>
      <stop offset="36%" stop-color="#f3f7fb"/>
      <stop offset="54%" stop-color="#bcc8d8"/>
      <stop offset="72%" stop-color="#f5f8fc"/>
      <stop offset="100%" stop-color="#d4dde8"/>
    </linearGradient>
    <linearGradient id="shardA" x1="0%" y1="0%" x2="100%" y2="100%">
      <stop offset="0%" stop-color="#ffffff" stop-opacity="0.92"/>
      <stop offset="100%" stop-color="#9eacbe" stop-opacity="0.78"/>
    </linearGradient>
    <linearGradient id="shardB" x1="100%" y1="0%" x2="0%" y2="100%">
      <stop offset="0%" stop-color="#eef4fa" stop-opacity="0.96"/>
      <stop offset="100%" stop-color="#90a1b7" stop-opacity="0.82"/>
    </linearGradient>
    <linearGradient id="shardC" x1="0%" y1="100%" x2="100%" y2="0%">
      <stop offset="0%" stop-color="#a3b3c6" stop-opacity="0.82"/>
      <stop offset="100%" stop-color="#ffffff" stop-opacity="0.9"/>
    </linearGradient>
    <filter id="blurGlow" x="-20%" y="-20%" width="140%" height="140%">
      <feGaussianBlur stdDeviation="12"/>
    </filter>
  </defs>

  <rect width="1600" height="420" fill="url(#base)"/>

  <g opacity="0.92">
    <polygon points="0,42 146,0 264,54 166,122 30,114" fill="url(#shardA)"/>
    <polygon points="202,0 418,20 332,138 176,94" fill="url(#shardB)"/>
    <polygon points="390,12 618,0 572,124 422,148 334,84" fill="url(#shardC)"/>
    <polygon points="600,0 856,18 752,156 546,110" fill="url(#shardA)"/>
    <polygon points="840,20 1034,0 1120,78 938,154 744,122" fill="url(#shardB)"/>
    <polygon points="1080,0 1312,28 1230,148 1024,110" fill="url(#shardC)"/>
    <polygon points="1288,20 1500,0 1600,92 1400,170 1226,116" fill="url(#shardA)"/>

    <polygon points="0,120 164,116 236,208 102,286 0,242" fill="url(#shardB)"/>
    <polygon points="180,126 362,146 442,242 272,320 122,246" fill="url(#shardC)"/>
    <polygon points="372,140 582,118 676,222 474,326 296,300" fill="url(#shardA)"/>
    <polygon points="620,134 818,166 892,260 700,340 522,286" fill="url(#shardB)"/>
    <polygon points="824,152 1032,136 1128,230 922,332 746,304" fill="url(#shardC)"/>
    <polygon points="1058,124 1278,142 1360,250 1170,334 1000,270" fill="url(#shardA)"/>
    <polygon points="1274,156 1492,136 1600,236 1462,330 1278,314" fill="url(#shardB)"/>

    <polygon points="0,246 126,288 102,420 0,420" fill="url(#shardC)"/>
    <polygon points="94,276 292,230 370,336 240,420 114,420" fill="url(#shardA)"/>
    <polygon points="286,236 500,254 590,360 424,420 236,420" fill="url(#shardB)"/>
    <polygon points="522,248 744,222 824,332 660,420 462,420" fill="url(#shardC)"/>
    <polygon points="768,234 980,268 1060,360 906,420 704,420" fill="url(#shardA)"/>
    <polygon points="986,258 1190,236 1270,340 1132,420 930,420" fill="url(#shardB)"/>
    <polygon points="1206,236 1412,262 1512,352 1390,420 1168,420" fill="url(#shardC)"/>
    <polygon points="1414,250 1600,216 1600,420 1388,420" fill="url(#shardA)"/>
  </g>

  <g opacity="0.4">
    <path d="M0 80 L210 28 L318 82 L168 138 Z" fill="#ffffff"/>
    <path d="M486 62 L656 18 L784 86 L620 166 Z" fill="#f8fbff"/>
    <path d="M922 58 L1098 22 L1218 96 L1038 172 Z" fill="#ffffff"/>
    <path d="M1328 72 L1532 18 L1600 96 L1436 174 Z" fill="#f7fbff"/>
    <path d="M138 208 L304 176 L388 252 L214 312 Z" fill="#ffffff"/>
    <path d="M584 198 L760 162 L862 242 L684 322 Z" fill="#f8fbff"/>
    <path d="M1050 186 L1226 162 L1326 244 L1148 322 Z" fill="#ffffff"/>
  </g>

  <g opacity="0.24" filter="url(#blurGlow)">
    <circle cx="274" cy="88" r="62" fill="#ffffff"/>
    <circle cx="842" cy="84" r="76" fill="#ffffff"/>
    <circle cx="1362" cy="124" r="68" fill="#ffffff"/>
    <circle cx="588" cy="294" r="86" fill="#ffffff"/>
    <circle cx="1170" cy="276" r="94" fill="#ffffff"/>
  </g>
</svg>
